<svg width="1280" height="720" viewBox="0 0 1280 720" fill="none" xmlns="http://www.w3.org/2000/svg">
  <rect width="1280" height="720" rx="36" fill="#F8FAFC"/>
  <rect x="78" y="72" width="1124" height="576" rx="34" fill="white" stroke="#E2E8F0" stroke-width="2"/>
  <text x="130" y="154" fill="#0F172A" font-family="Arial, Helvetica, sans-serif" font-size="54" font-weight="700">AI Builder</text>
  <text x="132" y="204" fill="#64748B" font-family="Arial, Helvetica, sans-serif" font-size="24">Plan, build, publish</text>
  <rect x="132" y="276" width="260" height="160" rx="28" fill="#EFF6FF" stroke="#BFDBFE" stroke-width="2"/>
  <rect x="510" y="236" width="240" height="240" rx="42" fill="#F5F3FF" stroke="#DDD6FE" stroke-width="2"/>
  <rect x="872" y="276" width="260" height="160" rx="28" fill="#F8FAFC" stroke="#CBD5E1" stroke-width="2"/>
  <path d="M392 356H510" stroke="#2563EB" stroke-width="10" stroke-linecap="round"/>
  <path d="M750 356H872" stroke="#7C3AED" stroke-width="10" stroke-linecap="round"/>
  <circle cx="262" cy="356" r="46" fill="#2563EB"/>
  <path d="M244 356L258 370L284 336" stroke="white" stroke-width="10" stroke-linecap="round" stroke-linejoin="round"/>
  <path d="M630 312L682 400H578L630 312Z" fill="#7C3AED"/>
  <rect x="944" y="326" width="116" height="18" rx="9" fill="#0F172A"/>
  <rect x="944" y="368" width="142" height="18" rx="9" fill="#CBD5E1"/>
  <rect x="132" y="534" width="410" height="22" rx="11" fill="#CBD5E1"/>
  <rect x="132" y="578" width="286" height="22" rx="11" fill="#E2E8F0"/>
</svg>
