<svg width="1280" height="720" viewBox="0 0 1280 720" fill="none" xmlns="http://www.w3.org/2000/svg">
  <rect width="1280" height="720" rx="36" fill="#F8FAFC"/>
  <rect x="84" y="76" width="1112" height="568" rx="32" fill="white" stroke="#E2E8F0" stroke-width="2"/>
  <rect x="130" y="122" width="318" height="38" rx="19" fill="#EEF2FF"/>
  <rect x="130" y="198" width="540" height="34" rx="17" fill="#0F172A"/>
  <rect x="130" y="256" width="448" height="22" rx="11" fill="#CBD5E1"/>
  <rect x="130" y="294" width="362" height="22" rx="11" fill="#E2E8F0"/>
  <rect x="130" y="374" width="236" height="64" rx="18" fill="#2563EB"/>
  <rect x="392" y="374" width="236" height="64" rx="18" fill="#F1F5F9" stroke="#CBD5E1" stroke-width="2"/>
  <rect x="748" y="162" width="316" height="316" rx="38" fill="#EEF2FF"/>
  <path d="M826 376L902 242L978 376H826Z" fill="#2563EB"/>
  <circle cx="986" cy="242" r="46" fill="#7C3AED"/>
  <path d="M748 532H1064" stroke="#CBD5E1" stroke-width="18" stroke-linecap="round"/>
  <path d="M806 578H1006" stroke="#E2E8F0" stroke-width="18" stroke-linecap="round"/>
  <circle cx="1094" cy="126" r="18" fill="#2563EB"/>
  <circle cx="1142" cy="126" r="18" fill="#7C3AED"/>
</svg>
