<svg width="1280" height="720" viewBox="0 0 1280 720" fill="none" xmlns="http://www.w3.org/2000/svg">
  <rect width="1280" height="720" rx="36" fill="#F8FAFC"/>
  <rect x="78" y="72" width="1124" height="576" rx="34" fill="white" stroke="#E2E8F0" stroke-width="2"/>
  <text x="130" y="154" fill="#0F172A" font-family="Arial, Helvetica, sans-serif" font-size="54" font-weight="700">Domain</text>
  <text x="132" y="204" fill="#64748B" font-family="Arial, Helvetica, sans-serif" font-size="24">Names, DNS, and launch trust</text>
  <rect x="150" y="300" width="486" height="150" rx="34" fill="#EFF6FF" stroke="#BFDBFE" stroke-width="2"/>
  <text x="196" y="392" fill="#2563EB" font-family="Arial, Helvetica, sans-serif" font-size="46" font-weight="700">example.com</text>
  <circle cx="814" cy="375" r="104" fill="#F5F3FF" stroke="#DDD6FE" stroke-width="2"/>
  <path d="M730 375H898M814 291C846 322 864 350 864 375C864 400 846 428 814 459C782 428 764 400 764 375C764 350 782 322 814 291Z" stroke="#7C3AED" stroke-width="12" stroke-linecap="round" stroke-linejoin="round"/>
  <rect x="980" y="326" width="120" height="98" rx="24" fill="#F8FAFC" stroke="#CBD5E1" stroke-width="2"/>
  <path d="M1018 374L1038 394L1070 352" stroke="#16A34A" stroke-width="10" stroke-linecap="round" stroke-linejoin="round"/>
  <rect x="132" y="552" width="390" height="22" rx="11" fill="#CBD5E1"/>
</svg>
