<svg width="1280" height="720" viewBox="0 0 1280 720" fill="none" xmlns="http://www.w3.org/2000/svg">
  <rect width="1280" height="720" rx="36" fill="#F8FAFC"/>
  <rect x="78" y="72" width="1124" height="576" rx="34" fill="white" stroke="#E2E8F0" stroke-width="2"/>
  <text x="130" y="154" fill="#0F172A" font-family="Arial, Helvetica, sans-serif" font-size="54" font-weight="700">Hosting</text>
  <text x="132" y="204" fill="#64748B" font-family="Arial, Helvetica, sans-serif" font-size="24">Deploy sites with fewer moving parts</text>
  <rect x="146" y="284" width="360" height="230" rx="28" fill="#EFF6FF" stroke="#BFDBFE" stroke-width="2"/>
  <rect x="188" y="332" width="276" height="32" rx="16" fill="#2563EB"/>
  <rect x="188" y="392" width="216" height="20" rx="10" fill="#93C5FD"/>
  <rect x="188" y="436" width="172" height="20" rx="10" fill="#BFDBFE"/>
  <rect x="650" y="262" width="410" height="274" rx="34" fill="#F8FAFC" stroke="#CBD5E1" stroke-width="2"/>
  <rect x="704" y="318" width="302" height="42" rx="16" fill="#0F172A"/>
  <rect x="704" y="396" width="302" height="42" rx="16" fill="#E2E8F0"/>
  <rect x="704" y="474" width="302" height="42" rx="16" fill="#E2E8F0"/>
  <circle cx="742" cy="339" r="8" fill="#22C55E"/>
  <path d="M506 399H650" stroke="#2563EB" stroke-width="10" stroke-linecap="round"/>
  <rect x="132" y="572" width="398" height="22" rx="11" fill="#CBD5E1"/>
</svg>
