<svg width="1280" height="720" viewBox="0 0 1280 720" fill="none" xmlns="http://www.w3.org/2000/svg">
  <rect width="1280" height="720" rx="36" fill="#F8FAFC"/>
  <rect x="78" y="72" width="1124" height="576" rx="34" fill="white" stroke="#E2E8F0" stroke-width="2"/>
  <text x="130" y="154" fill="#0F172A" font-family="Arial, Helvetica, sans-serif" font-size="54" font-weight="700">Startup</text>
  <text x="132" y="204" fill="#64748B" font-family="Arial, Helvetica, sans-serif" font-size="24">Idea, offer, launch, learn</text>
  <path d="M620 254C704 282 760 360 760 452L640 536L520 452C520 360 566 282 620 254Z" fill="#EFF6FF" stroke="#BFDBFE" stroke-width="2"/>
  <circle cx="640" cy="372" r="46" fill="#2563EB"/>
  <path d="M640 536V602" stroke="#7C3AED" stroke-width="14" stroke-linecap="round"/>
  <path d="M574 572L526 624M706 572L754 624" stroke="#7C3AED" stroke-width="12" stroke-linecap="round"/>
  <rect x="164" y="332" width="252" height="150" rx="28" fill="#F8FAFC" stroke="#CBD5E1" stroke-width="2"/>
  <rect x="864" y="332" width="252" height="150" rx="28" fill="#F5F3FF" stroke="#DDD6FE" stroke-width="2"/>
  <rect x="210" y="382" width="142" height="18" rx="9" fill="#0F172A"/>
  <rect x="910" y="382" width="142" height="18" rx="9" fill="#7C3AED"/>
  <rect x="132" y="558" width="370" height="22" rx="11" fill="#CBD5E1"/>
</svg>
