<svg width="1280" height="720" viewBox="0 0 1280 720" fill="none" xmlns="http://www.w3.org/2000/svg">
  <rect width="1280" height="720" rx="36" fill="#F8FAFC"/>
  <rect x="78" y="72" width="1124" height="576" rx="34" fill="white" stroke="#E2E8F0" stroke-width="2"/>
  <text x="130" y="154" fill="#0F172A" font-family="Arial, Helvetica, sans-serif" font-size="54" font-weight="700">Traffic</text>
  <text x="132" y="204" fill="#64748B" font-family="Arial, Helvetica, sans-serif" font-size="24">Visitors, channels, momentum</text>
  <rect x="154" y="294" width="342" height="210" rx="30" fill="#EFF6FF" stroke="#BFDBFE" stroke-width="2"/>
  <path d="M210 438C250 386 292 404 326 358C360 312 404 322 442 278" stroke="#2563EB" stroke-width="14" stroke-linecap="round" stroke-linejoin="round"/>
  <circle cx="442" cy="278" r="18" fill="#2563EB"/>
  <rect x="634" y="290" width="226" height="226" rx="36" fill="#F5F3FF" stroke="#DDD6FE" stroke-width="2"/>
  <path d="M704 404H790M747 361V447" stroke="#7C3AED" stroke-width="12" stroke-linecap="round"/>
  <rect x="956" y="334" width="162" height="126" rx="28" fill="#F8FAFC" stroke="#CBD5E1" stroke-width="2"/>
  <circle cx="1008" cy="394" r="18" fill="#16A34A"/>
  <circle cx="1066" cy="394" r="18" fill="#2563EB"/>
  <rect x="132" y="560" width="424" height="22" rx="11" fill="#CBD5E1"/>
</svg>
