<svg width="1280" height="720" viewBox="0 0 1280 720" fill="none" xmlns="http://www.w3.org/2000/svg">
  <rect width="1280" height="720" rx="36" fill="#F8FAFC"/>
  <rect x="78" y="72" width="1124" height="576" rx="34" fill="white" stroke="#E2E8F0" stroke-width="2"/>
  <text x="130" y="154" fill="#0F172A" font-family="Arial, Helvetica, sans-serif" font-size="54" font-weight="700">VPS</text>
  <text x="132" y="204" fill="#64748B" font-family="Arial, Helvetica, sans-serif" font-size="24">Servers, Docker, APIs, workers</text>
  <rect x="168" y="270" width="268" height="256" rx="28" fill="#F8FAFC" stroke="#CBD5E1" stroke-width="2"/>
  <rect x="206" y="318" width="192" height="42" rx="14" fill="#0F172A"/>
  <rect x="206" y="396" width="192" height="42" rx="14" fill="#E2E8F0"/>
  <rect x="206" y="474" width="192" height="42" rx="14" fill="#E2E8F0"/>
  <circle cx="230" cy="339" r="8" fill="#22C55E"/>
  <rect x="548" y="282" width="220" height="220" rx="38" fill="#EFF6FF" stroke="#BFDBFE" stroke-width="2"/>
  <path d="M608 392H708M658 342V442" stroke="#2563EB" stroke-width="14" stroke-linecap="round"/>
  <rect x="878" y="304" width="230" height="176" rx="30" fill="#F5F3FF" stroke="#DDD6FE" stroke-width="2"/>
  <rect x="920" y="356" width="146" height="18" rx="9" fill="#7C3AED"/>
  <rect x="920" y="400" width="104" height="18" rx="9" fill="#C4B5FD"/>
  <path d="M436 398H548M768 398H878" stroke="#7C3AED" stroke-width="10" stroke-linecap="round"/>
</svg>
